<?xml version="1.0" encoding="utf-8"?>
<!-- Generator: Adobe Illustrator 16.0.0, SVG Export Plug-In . SVG Version: 6.00 Build 0)  -->
<!DOCTYPE svg PUBLIC "-//W3C//DTD SVG 1.1//EN" "http://www.w3.org/Graphics/SVG/1.1/DTD/svg11.dtd">
<svg version="1.1" id="Layer_1" xmlns="http://www.w3.org/2000/svg" xmlns:xlink="http://www.w3.org/1999/xlink" x="0px" y="0px"
	 width="323.193px" height="323.193px" viewBox="0 0 323.193 323.193" enable-background="new 0 0 323.193 323.193"
	 xml:space="preserve">
<g>
	<path fill="#FFFFFF" d="M100.228,272.676c0,3.611,1.275,5.419,3.826,5.419c4.254,0,9.992-4.145,17.215-12.433
		c7.228-8.289,14.456-19.766,21.678-34.431c-13.813,7.014-24.388,14.187-31.721,21.519S100.228,266.724,100.228,272.676z"/>
	<path fill="#FFFFFF" d="M161.597,0C72.35,0,0,72.35,0,161.596c0,89.248,72.35,161.597,161.597,161.597
		s161.596-72.349,161.596-161.597C323.193,72.35,250.844,0,161.597,0z M165.137,45.839c17.335,1.604,19.628-0.469,11.202-14.691
		c14.543,10.397,17.607,8.962,20.308-8.767c3.438,15.816,6.514,15.338,17.314,1.543c-3.36,13.795-0.093,14.725,13.315,8.7
		c-9.05,9.745-7.96,12.534,5.636,13.301c-13.597,5.609-14.182,8.107-0.563,12.435c-15.958,0.349-17.71,2.527-6.407,12.978
		c-15.979-6.414-18.503-4.899-13.382,10.72c-10.541-13.601-13.436-13.096-17.914,3.48c-0.922-16.577-3.096-16.842-12.886-2.956
		c5.731-14.949,3.847-15.746-9.674-6.2c8.306-12.731,6.568-15.71-8.75-16.914C178.653,54.297,179.416,51.906,165.137,45.839z
		 M223.604,175.76c-4.254,5.953-8.876,11.108-13.868,15.462c-4.996,4.359-9.086,7.651-12.274,9.883
		c-3.188,2.232-7.811,5.046-13.868,8.448c-6.058,3.397-10.042,5.739-11.955,7.014c-8.289,22.102-17.908,40.433-28.852,54.994
		c-10.944,14.555-22.685,21.838-35.228,21.838c-6.162,0-11.049-1.704-14.665-5.101c-3.611-3.402-5.419-7.97-5.419-13.708
		c0-10.416,5.953-21.2,17.853-32.358c11.905-11.158,26.889-20.354,44.951-27.576c7.651-18.914,13.708-40.488,18.172-64.717
		l-5.42,8.607c-2.55,4.04-4.463,7.228-5.738,9.564l-5.419-8.608c3.611-6.585,7.811-16.149,12.592-28.692
		c4.782-12.538,9.136-22.047,13.061-28.533c3.925-6.481,8.358-9.724,13.3-9.724c3.009,0,5.559,1.116,7.646,3.348
		c2.087,2.231,3.133,5.051,3.133,8.448c0,5.738-2.361,18.6-7.083,38.575c-4.722,19.98-10.65,39.746-17.783,59.297
		c7.651-4.249,13.758-7.97,18.331-11.158c4.568-3.188,10.147-8.234,16.737-15.143c6.585-6.904,12.643-15.143,18.171-24.707
		l5.739,3.826C231.893,162.904,227.853,169.813,223.604,175.76z"/>
</g>
</svg>
